<svg xmlns="http://www.w3.org/2000/svg" xmlns:xlink="http://www.w3.org/1999/xlink" width="756" zoomAndPan="magnify" viewBox="0 0 567 141.750002" height="189" preserveAspectRatio="xMidYMid meet" version="1.0"><defs><clipPath id="100fbef19a"><path d="M 0.238281 0.519531 L 97 0.519531 L 97 97 L 0.238281 97 Z M 0.238281 0.519531 " clip-rule="nonzero"/></clipPath><clipPath id="7a93157265"><path d="M 157 0.519531 L 253 0.519531 L 253 97 L 157 97 Z M 157 0.519531 " clip-rule="nonzero"/></clipPath><clipPath id="7686eef4a7"><path d="M 83 0.519531 L 153 0.519531 L 153 97 L 83 97 Z M 83 0.519531 " clip-rule="nonzero"/></clipPath><clipPath id="2024841f89"><path d="M 307 1 L 402.964844 1 L 402.964844 97 L 307 97 Z M 307 1 " clip-rule="nonzero"/></clipPath><clipPath id="f83a07541b"><rect x="0" width="403" y="0" height="98"/></clipPath></defs><g transform="matrix(1, 0, 0, 1, 81, 22)"><g clip-path="url(#f83a07541b)"><g clip-path="url(#100fbef19a)"><path fill="#ffffff" d="M 48.296875 24.789062 L 48.230469 48.949219 L 46.535156 47.347656 C 45.605469 46.441406 41.425781 42.351562 37.265625 38.238281 C 15.816406 17.082031 11.816406 13.148438 6.367188 7.722656 L 0.421875 1.847656 L 0.421875 96.214844 L 78.855469 96.214844 L 87.445312 78.878906 L 96.035156 61.5625 L 96.035156 0.601562 L 48.34375 0.601562 Z M 48.296875 24.789062 " fill-opacity="1" fill-rule="nonzero"/></g><g clip-path="url(#7a93157265)"><path fill="#ffffff" d="M 157.289062 48.410156 L 157.289062 96.214844 L 182.558594 96.214844 C 209.5 96.214844 210.699219 96.167969 215.648438 95.082031 C 220.125 94.089844 226.386719 91.578125 229.6875 89.457031 L 230.769531 88.753906 L 241.710938 66.671875 C 253.847656 42.261719 252.945312 44.453125 252.332031 40.609375 C 249.238281 21.351562 234.046875 5.574219 214.789062 1.621094 C 210.019531 0.648438 208.597656 0.601562 182.355469 0.601562 L 157.289062 0.601562 Z M 157.289062 48.410156 " fill-opacity="1" fill-rule="nonzero"/></g><g clip-path="url(#7686eef4a7)"><path fill="#ffffff" d="M 124.242188 14.503906 C 113.304688 36.40625 83.828125 95.875 83.828125 96.054688 C 83.828125 96.144531 99.402344 96.214844 118.410156 96.214844 L 152.992188 96.214844 L 152.972656 70.265625 L 152.972656 44.339844 L 131.136719 0.714844 Z M 124.242188 14.503906 " fill-opacity="1" fill-rule="nonzero"/></g><g clip-path="url(#2024841f89)"><path fill="#ffffff" d="M 307.328125 1.167969 C 307.214844 1.28125 307.144531 12.402344 307.144531 25.894531 L 307.144531 50.441406 L 318.492188 73.65625 L 329.863281 96.890625 L 402.871094 96.890625 L 378.910156 72.933594 L 354.953125 48.972656 L 402.644531 1.28125 L 390.640625 1.28125 C 384.042969 1.28125 362.636719 1.214844 343.0625 1.144531 C 323.488281 1.054688 307.417969 1.078125 307.328125 1.167969 Z M 307.328125 1.167969 " fill-opacity="1" fill-rule="nonzero"/></g><path fill="#ffffff" d="M 270.304688 18.910156 C 257.125 45.222656 231.628906 96.734375 231.71875 96.824219 C 231.765625 96.847656 252.808594 96.871094 278.464844 96.847656 L 325.136719 96.777344 L 303.847656 53.269531 C 292.113281 29.332031 281.671875 8.015625 280.632812 5.914062 L 278.734375 2.070312 Z M 270.304688 18.910156 " fill-opacity="1" fill-rule="nonzero"/></g></g></svg>